<svg version="1.1" xmlns="http://www.w3.org/2000/svg" viewBox="0 0 695.0565978084301 459.511257111596" width="24" height="24" filter="invert(93%) hue-rotate(180deg)"><!-- svg-source:excalidraw --><metadata></metadata><defs><style class="style-fonts">
      </style></defs><rect x="0" y="0" width="695.0565978084301" height="459.511257111596" fill="#ffffff"></rect><g stroke-linecap="round" transform="translate(47.181750557897885 10) rotate(0 318.9374236252661 203.22536647052902)"><path d="M32 0 C256.9 0, 481.8 0, 605.87 0 C627.21 0, 637.87 10.67, 637.87 32 C637.87 138.01, 637.87 244.02, 637.87 374.45 C637.87 395.78, 627.21 406.45, 605.87 406.45 C474.88 406.45, 343.88 406.45, 32 406.45 C10.67 406.45, 0 395.78, 0 374.45 C0 278.2, 0 181.95, 0 32 C0 10.67, 10.67 0, 32 0" stroke="none" stroke-width="0" fill="#343a40"></path><path d="M32 0 C201.27 0, 370.53 0, 605.87 0 M605.87 0 C627.21 0, 637.87 10.67, 637.87 32 M637.87 32 C637.87 112.95, 637.87 193.9, 637.87 374.45 M637.87 374.45 C637.87 395.78, 627.21 406.45, 605.87 406.45 M605.87 406.45 C483.59 406.45, 361.31 406.45, 32 406.45 M32 406.45 C10.67 406.45, 0 395.78, 0 374.45 M0 374.45 C0 267.76, 0 161.07, 0 32 M0 32 C0 10.67, 10.67 0, 32 0" stroke="transparent" stroke-width="4.5" fill="none" stroke-dasharray="8 12"></path></g><g stroke-linecap="round" transform="translate(10 43.060524170537974) rotate(0 318.9374236252661 203.22536647052902)"><path d="M32 0 C199.15 0, 366.31 0, 605.87 0 C627.21 0, 637.87 10.67, 637.87 32 C637.87 122.23, 637.87 212.47, 637.87 374.45 C637.87 395.78, 627.21 406.45, 605.87 406.45 C489.94 406.45, 374.01 406.45, 32 406.45 C10.67 406.45, 0 395.78, 0 374.45 C0 243.05, 0 111.65, 0 32 C0 10.67, 10.67 0, 32 0" stroke="none" stroke-width="0" fill="#1e1e1e"></path><path d="M32 0 C250.08 0, 468.16 0, 605.87 0 M605.87 0 C627.21 0, 637.87 10.67, 637.87 32 M637.87 32 C637.87 113.84, 637.87 195.67, 637.87 374.45 M637.87 374.45 C637.87 395.78, 627.21 406.45, 605.87 406.45 M605.87 406.45 C434.58 406.45, 263.29 406.45, 32 406.45 M32 406.45 C10.67 406.45, 0 395.78, 0 374.45 M0 374.45 C0 303.97, 0 233.49, 0 32 M0 32 C0 10.67, 10.67 0, 32 0" stroke="transparent" stroke-width="4.5" fill="none" stroke-dasharray="8 12"></path></g><g stroke-linecap="round" transform="translate(189.8883504516034 109.18175055790016) rotate(0 134.1870742842143 129.3252089294797)"><path d="M168.75 32.5 C191.74 55.18, 214.72 77.86, 234.62 97.5 C268.37 130, 268.37 130, 234.62 162.5 C212.03 184.34, 189.43 206.17, 168.75 226.15 C135 258.65, 135 258.65, 101.25 226.15 C80.98 207.04, 60.72 187.93, 33.75 162.5 C0 130, 0 130, 33.75 97.5 C51.77 80.14, 69.8 62.79, 101.25 32.5 C135 0, 135 0, 168.75 32.5" stroke="none" stroke-width="0" fill="#ffffff"></path><path d="M168.75 32.5 C194.8 58.21, 220.85 83.91, 234.62 97.5 M234.62 97.5 C268.37 130, 268.37 130, 234.62 162.5 M234.62 162.5 C220.28 176.36, 205.94 190.21, 168.75 226.15 M168.75 226.15 C135 258.65, 135 258.65, 101.25 226.15 M101.25 226.15 C80.43 206.52, 59.62 186.89, 33.75 162.5 M33.75 162.5 C0 130, 0 130, 33.75 97.5 M33.75 97.5 C47.38 84.37, 61.01 71.25, 101.25 32.5 M101.25 32.5 C135 0, 135 0, 168.75 32.5" stroke="transparent" stroke-width="4.5" fill="none" stroke-dasharray="8 12"></path></g></svg>